<mxfile host="drawio-plugin" modified="2024-03-13T14:09:37.968Z" agent="5.0 (Windows NT 10.0; Win64; x64) AppleWebKit/537.36 (KHTML, like Gecko) Chrome/111.0.0.0 Safari/537.36" etag="8o6bv5gfXrD16Wld-dHU" version="20.5.3" type="embed"><diagram id="23iRSUPoRavnBvh4doch" name="Page-1"><mxGraphModel dx="783" dy="483" grid="1" gridSize="10" guides="1" tooltips="1" connect="1" arrows="1" fold="1" page="1" pageScale="1" pageWidth="827" pageHeight="1169" math="0" shadow="0"><root><mxCell id="0"/><mxCell id="1" parent="0"/><mxCell id="2" value="&lt;p style=&quot;margin:0px;margin-top:4px;text-align:center;&quot;&gt;&lt;i&gt;&amp;lt;&amp;lt;Interface&amp;gt;&amp;gt;&lt;/i&gt;&lt;br&gt;&lt;b&gt;Car&lt;/b&gt;&lt;/p&gt;&lt;hr size=&quot;1&quot;&gt;&lt;p style=&quot;margin:0px;margin-left:4px;&quot;&gt;+ getDescription(): String&lt;br style=&quot;padding: 0px; margin: 0px;&quot;&gt;+ getPrice(): BigDecimal&lt;br style=&quot;padding: 0px; margin: 0px;&quot;&gt;&lt;br&gt;&lt;/p&gt;" style="verticalAlign=top;align=left;overflow=fill;fontSize=12;fontFamily=Helvetica;html=1;" vertex="1" parent="1"><mxGeometry x="120" y="80" width="160" height="80" as="geometry"/></mxCell><mxCell id="3" value="BasicCar" style="swimlane;fontStyle=1;align=center;verticalAlign=top;childLayout=stackLayout;horizontal=1;startSize=26;horizontalStack=0;resizeParent=1;resizeParentMax=0;resizeLast=0;collapsible=1;marginBottom=0;" vertex="1" parent="1"><mxGeometry x="120" y="320" width="160" height="120" as="geometry"/></mxCell><mxCell id="4" value="- name: String&#10;- price: double" style="text;strokeColor=none;fillColor=none;align=left;verticalAlign=top;spacingLeft=4;spacingRight=4;overflow=hidden;rotatable=0;points=[[0,0.5],[1,0.5]];portConstraint=eastwest;" vertex="1" parent="3"><mxGeometry y="26" width="160" height="44" as="geometry"/></mxCell><mxCell id="5" value="" style="line;strokeWidth=1;fillColor=none;align=left;verticalAlign=middle;spacingTop=-1;spacingLeft=3;spacingRight=3;rotatable=0;labelPosition=right;points=[];portConstraint=eastwest;strokeColor=inherit;" vertex="1" parent="3"><mxGeometry y="70" width="160" height="8" as="geometry"/></mxCell><mxCell id="6" value="+ getDescription(): String&#10;+ getPrice(): BigDecimal" style="text;strokeColor=none;fillColor=none;align=left;verticalAlign=top;spacingLeft=4;spacingRight=4;overflow=hidden;rotatable=0;points=[[0,0.5],[1,0.5]];portConstraint=eastwest;" vertex="1" parent="3"><mxGeometry y="78" width="160" height="42" as="geometry"/></mxCell><mxCell id="7" value="CarDecorator" style="swimlane;fontStyle=3;align=center;verticalAlign=top;childLayout=stackLayout;horizontal=1;startSize=26;horizontalStack=0;resizeParent=1;resizeParentMax=0;resizeLast=0;collapsible=1;marginBottom=0;" vertex="1" parent="1"><mxGeometry x="520" y="240" width="160" height="100" as="geometry"/></mxCell><mxCell id="8" value="# car: Car" style="text;strokeColor=none;fillColor=none;align=left;verticalAlign=top;spacingLeft=4;spacingRight=4;overflow=hidden;rotatable=0;points=[[0,0.5],[1,0.5]];portConstraint=eastwest;" vertex="1" parent="7"><mxGeometry y="26" width="160" height="24" as="geometry"/></mxCell><mxCell id="9" value="" style="line;strokeWidth=1;fillColor=none;align=left;verticalAlign=middle;spacingTop=-1;spacingLeft=3;spacingRight=3;rotatable=0;labelPosition=right;points=[];portConstraint=eastwest;strokeColor=inherit;" vertex="1" parent="7"><mxGeometry y="50" width="160" height="8" as="geometry"/></mxCell><mxCell id="10" value="+ getDescription(): String&#10;+ getPrice(): BigDecimal" style="text;strokeColor=none;fillColor=none;align=left;verticalAlign=top;spacingLeft=4;spacingRight=4;overflow=hidden;rotatable=0;points=[[0,0.5],[1,0.5]];portConstraint=eastwest;" vertex="1" parent="7"><mxGeometry y="58" width="160" height="42" as="geometry"/></mxCell><mxCell id="11" value="CruiseControlCarDecorator" style="swimlane;fontStyle=1;align=center;verticalAlign=top;childLayout=stackLayout;horizontal=1;startSize=26;horizontalStack=0;resizeParent=1;resizeParentMax=0;resizeLast=0;collapsible=1;marginBottom=0;" vertex="1" parent="1"><mxGeometry x="480" y="520" width="200" height="68" as="geometry"/></mxCell><mxCell id="14" value="+ getDescription(): String&#10;+ getPrice(): BigDecimal" style="text;strokeColor=none;fillColor=none;align=left;verticalAlign=top;spacingLeft=4;spacingRight=4;overflow=hidden;rotatable=0;points=[[0,0.5],[1,0.5]];portConstraint=eastwest;" vertex="1" parent="11"><mxGeometry y="26" width="200" height="42" as="geometry"/></mxCell><mxCell id="15" value="AlarmsCarDecorator" style="swimlane;fontStyle=1;align=center;verticalAlign=top;childLayout=stackLayout;horizontal=1;startSize=26;horizontalStack=0;resizeParent=1;resizeParentMax=0;resizeLast=0;collapsible=1;marginBottom=0;" vertex="1" parent="1"><mxGeometry x="480" y="400" width="200" height="70" as="geometry"/></mxCell><mxCell id="18" value="+ getDescription(): String&#10;+ getPrice(): BigDecimal" style="text;strokeColor=none;fillColor=none;align=left;verticalAlign=top;spacingLeft=4;spacingRight=4;overflow=hidden;rotatable=0;points=[[0,0.5],[1,0.5]];portConstraint=eastwest;" vertex="1" parent="15"><mxGeometry y="26" width="200" height="44" as="geometry"/></mxCell><mxCell id="19" value="SpoilerCarDecorator" style="swimlane;fontStyle=1;align=center;verticalAlign=top;childLayout=stackLayout;horizontal=1;startSize=26;horizontalStack=0;resizeParent=1;resizeParentMax=0;resizeLast=0;collapsible=1;marginBottom=0;" vertex="1" parent="1"><mxGeometry x="480" y="640" width="200" height="70" as="geometry"/></mxCell><mxCell id="22" value="+ getDescription(): String&#10;+ getPrice(): BigDecimal" style="text;strokeColor=none;fillColor=none;align=left;verticalAlign=top;spacingLeft=4;spacingRight=4;overflow=hidden;rotatable=0;points=[[0,0.5],[1,0.5]];portConstraint=eastwest;" vertex="1" parent="19"><mxGeometry y="26" width="200" height="44" as="geometry"/></mxCell><mxCell id="23" value="MetallicCarDecorator" style="swimlane;fontStyle=1;align=center;verticalAlign=top;childLayout=stackLayout;horizontal=1;startSize=26;horizontalStack=0;resizeParent=1;resizeParentMax=0;resizeLast=0;collapsible=1;marginBottom=0;" vertex="1" parent="1"><mxGeometry x="480" y="760" width="200" height="68" as="geometry"/></mxCell><mxCell id="26" value="+ getDescription(): String&#10;+ getPrice(): BigDecimal" style="text;strokeColor=none;fillColor=none;align=left;verticalAlign=top;spacingLeft=4;spacingRight=4;overflow=hidden;rotatable=0;points=[[0,0.5],[1,0.5]];portConstraint=eastwest;" vertex="1" parent="23"><mxGeometry y="26" width="200" height="42" as="geometry"/></mxCell><mxCell id="27" value="Use" style="endArrow=open;endSize=12;dashed=1;html=1;rounded=0;exitX=0;exitY=0.5;exitDx=0;exitDy=0;entryX=0.999;entryY=0.729;entryDx=0;entryDy=0;entryPerimeter=0;" edge="1" parent="1" source="8" target="2"><mxGeometry width="160" relative="1" as="geometry"><mxPoint x="380" y="290" as="sourcePoint"/><mxPoint x="540" y="290" as="targetPoint"/><Array as="points"><mxPoint x="440" y="278"/><mxPoint x="440" y="140"/></Array></mxGeometry></mxCell><mxCell id="28" value="" style="endArrow=block;dashed=1;endFill=0;endSize=12;html=1;rounded=0;exitX=0.5;exitY=0;exitDx=0;exitDy=0;entryX=0.5;entryY=1;entryDx=0;entryDy=0;" edge="1" parent="1" source="3" target="2"><mxGeometry width="160" relative="1" as="geometry"><mxPoint x="380" y="290" as="sourcePoint"/><mxPoint x="540" y="290" as="targetPoint"/></mxGeometry></mxCell><mxCell id="29" value="" style="endArrow=block;dashed=1;endFill=0;endSize=12;html=1;rounded=0;exitX=0.5;exitY=0;exitDx=0;exitDy=0;entryX=0.999;entryY=0.269;entryDx=0;entryDy=0;entryPerimeter=0;" edge="1" parent="1" source="7" target="2"><mxGeometry width="160" relative="1" as="geometry"><mxPoint x="380" y="290" as="sourcePoint"/><mxPoint x="540" y="290" as="targetPoint"/><Array as="points"><mxPoint x="600" y="102"/></Array></mxGeometry></mxCell><mxCell id="30" value="Extends" style="endArrow=block;endSize=16;endFill=0;html=1;rounded=0;entryX=1;entryY=0.5;entryDx=0;entryDy=0;" edge="1" parent="1" target="8"><mxGeometry x="0.0723" width="160" relative="1" as="geometry"><mxPoint x="760" y="800" as="sourcePoint"/><mxPoint x="930" y="700" as="targetPoint"/><Array as="points"><mxPoint x="760" y="278"/></Array><mxPoint as="offset"/></mxGeometry></mxCell><mxCell id="31" value="Extends" style="endArrow=block;endSize=16;endFill=0;html=1;rounded=0;exitX=1;exitY=0.5;exitDx=0;exitDy=0;" edge="1" parent="1"><mxGeometry width="160" relative="1" as="geometry"><mxPoint x="680" y="438" as="sourcePoint"/><mxPoint x="760" y="438" as="targetPoint"/></mxGeometry></mxCell><mxCell id="32" value="Extends" style="endArrow=block;endSize=16;endFill=0;html=1;rounded=0;exitX=1;exitY=0.25;exitDx=0;exitDy=0;" edge="1" parent="1" source="11"><mxGeometry width="160" relative="1" as="geometry"><mxPoint x="680" y="558" as="sourcePoint"/><mxPoint x="760" y="537" as="targetPoint"/></mxGeometry></mxCell><mxCell id="34" value="Extends" style="endArrow=block;endSize=16;endFill=0;html=1;rounded=0;exitX=1;exitY=0.25;exitDx=0;exitDy=0;" edge="1" parent="1" source="19"><mxGeometry width="160" relative="1" as="geometry"><mxPoint x="680" y="758" as="sourcePoint"/><mxPoint x="760" y="658" as="targetPoint"/></mxGeometry></mxCell><mxCell id="35" value="Extends" style="endArrow=block;endSize=16;endFill=0;html=1;rounded=0;exitX=1;exitY=0.5;exitDx=0;exitDy=0;" edge="1" parent="1"><mxGeometry width="160" relative="1" as="geometry"><mxPoint x="680" y="798" as="sourcePoint"/><mxPoint x="760" y="798" as="targetPoint"/></mxGeometry></mxCell></root></mxGraphModel></diagram></mxfile>